<?xml version="1.0" encoding="utf-8"?>
<!-- Generator: Adobe Illustrator 21.0.2, SVG Export Plug-In . SVG Version: 6.00 Build 0)  -->
<svg version="1.1" id="Layer_1" xmlns="http://www.w3.org/2000/svg" xmlns:xlink="http://www.w3.org/1999/xlink" x="0px" y="0px"
	 viewBox="0 0 453 270" style="enable-background:new 0 0 453 270;" xml:space="preserve">
<style type="text/css">
	.st0{fill-rule:evenodd;clip-rule:evenodd;}
	.st1{fill-rule:evenodd;clip-rule:evenodd;stroke:#000000;stroke-width:4.4722;stroke-linecap:round;stroke-miterlimit:10;}
	.st2{fill-rule:evenodd;clip-rule:evenodd;fill:#FF003F;}
	.st3{fill-rule:evenodd;clip-rule:evenodd;fill:#EC2556;}
	.st4{fill-rule:evenodd;clip-rule:evenodd;fill:#FFF200;}
	.st5{fill-rule:evenodd;clip-rule:evenodd;stroke:#000000;stroke-width:0.5;stroke-miterlimit:2.6131;}
</style>
<polygon class="st0" points="328.6,57 334.8,15.6 351.8,20 326.7,70.3 "/>
<polygon class="st0" points="433,151.1 432.8,164.4 403.3,153.4 "/>
<polygon class="st0" points="419.8,64.9 381.3,88.7 408.2,56.4 422.9,63 "/>
<polygon class="st0" points="238,14.3 254.4,12.7 251.6,58 "/>
<polygon class="st1" points="126.3,226.7 154.5,191.8 128.6,155.4 131.4,136.1 83,74.8 196.3,86.1 197.1,45.8 255.9,83.1 
	290.3,48.2 324,86 349.5,72.8 361.7,106.4 362.9,106.4 410.1,108.7 374.2,134.7 395.9,189 357.6,174 371.4,231.5 308.6,204.8 
	274.3,212.6 248.5,218.8 199.7,226.7 187.3,224.5 "/>
<polygon class="st2" points="130.5,220.8 159.6,190 128.6,156.7 138.9,143 91.4,79.9 198.7,86.3 200.4,51.5 230.3,68.4 256.8,83.4 
	290.4,50 323.2,86.1 348,73.5 359.8,105.7 361,105.7 407,107.9 372.1,132.8 391.2,183.4 361.3,176.3 355,180 369.3,225.4 
	308.1,199.8 276.5,219.5 249.6,213.3 200.1,232 190,218.7 "/>
<polygon class="st3" points="250.7,48 243.6,16.4 251.8,15.6 "/>
<polygon class="st3" points="330.7,58.6 336.4,20.4 344.2,23.4 "/>
<path class="st3" d="M392.8,79.3L416.1,65c0,0-5.9-4.7-6.1-3.3C409.7,63.1,392.8,79.3,392.8,79.3z"/>
<polygon class="st3" points="411.7,154.3 430.5,153.8 430.3,160.7 "/>
<path class="st0" d="M75.3,218.1l-3.9,3.7l-0.5-14.3l24.2-5.9C88,207.1,82,211.9,75.3,218.1z"/>
<polygon class="st0" points="22.7,122.3 93.9,145.3 15.8,141 19.2,121.1 "/>
<polygon class="st3" points="70.4,140.2 24.8,125.5 22.7,137.6 "/>
<path class="st3" d="M85.4,206.3c-0.8,0.3-11.4,10-11.4,10l-0.2-6.6L85.4,206.3z"/>
<path class="st0" d="M128.3,176.5c-2,0-8.5-6.2-8.9-7.8l-0.1-0.4l0,0c0-0.1-0.1-0.2-0.1-0.3c-1.1-3.6-2.1-7.1-3.2-10.7
	c-6-20.3-12.3-40.8-18.6-60.9c-0.4-1.3-0.3-2.8,0.3-4.1c0.6-1.3,1.7-2.3,3-2.8c9.4-3.5,19-6.6,28.5-9.4c3-0.9,6.3-1.5,9.8-1.9
	l0.6-0.1c1.1-0.1,2.2-0.2,3.2-0.2c2.4,0,4.7,0.3,6.9,0.8c3.6,0.9,6.9,2.7,9.7,5.4c0.8,0.8,1.5,1.6,2.2,2.7c2.7,3.4,6.2,11.8,7,16.1
	c0,0.1,0,0.2,0,0.2c1.7-10.3,3.4-20.3,5.3-29.9c0.4-2.1,2.1-3.8,4.1-4.1c7.7-1.2,15.5-2.2,23.4-3c0,0,0,0,0,0c0,0,0.2,0,0.2,0
	c0,0,0.1,0,0.2,0c1.9,0,3.6,1.1,4.4,2.8c1.1,2.3,2.2,4.5,3.3,6.8c0.1,0.1,0.1,0.2,0.2,0.3c3.6,7.4,7.3,15.2,10.9,23.4
	c-0.7-9.8-1.4-19.6-2.1-29.4c-0.1-1.4,0.4-2.7,1.2-3.7c0.9-1,2.1-1.6,3.4-1.6c7,0.1,14,0.2,20.9,0.3c1.8,0,3.4,1.1,4.3,2.7l9.1,17.4
	L257,70c0-1.3,0.4-2.5,1.2-3.4c0.9-1,2.1-1.5,3.4-1.5c6.3-0.1,12.7-0.2,19-0.2c1.4,0,2.7,0.6,3.7,1.6c0.4,0.4,0.7,0.8,0.9,1.3
	c1,1.8,2.6,5.3,3.4,7.4c3.2-2.4,6.7-4.1,10.6-5.1c2.5-0.6,5.1-0.9,7.7-0.9c0.3,0,0.7,0,1,0c1.9,0.1,3.8,0.3,5.7,0.6
	c5.1,1,9.8,2.9,14.1,5.8c3.3,2.2,6.2,4.8,8.4,7.7c0.2-1.3,0.5-2.6,0.7-3.9c0.4-2.2,2.2-3.7,4.4-3.7c0.1,0,0.3,0,0.3,0l0.1,0
	c0.1,0,0.2,0,0.3,0l0.3,0.1c6.9,1.5,13.9,3.2,20.9,4.9c1.4,0.3,2.5,1.2,3.3,2.4c0.2,0.3,0.3,0.6,0.5,1c0.7,1.3,1.5,3,2.1,4.4
	c0.4,0.8,0.8,1.7,0.9,1.8c0.6,0.9,0.8,2.1,0.5,3.1c-3.7,12.9-7.3,26.1-10.8,39.4c-0.4,1.5-1.8,2.6-3.4,2.6l-0.6,0l-0.5-0.1
	c-0.2,0-0.3-0.1-0.5-0.1c1,1.4,1.7,2.8,2.1,4.4c0.4,1.6,0.5,3.2,0.3,4.9c-0.2,1.6-0.7,3.2-1.5,4.6c-0.8,1.4-1.9,2.7-3.2,3.7
	c-1.4,1.1-2.8,1.9-4.4,2.4c-1.2,0.4-2.4,0.6-3.6,0.6l0,0l-0.3,0c-0.3,0-0.5,0-0.8,0c-1.6-0.1-3.1-0.6-4.5-1.3
	c-1.5-0.8-2.8-1.8-4-3.2c-0.7-0.8-1.2-1.7-1.6-2.6c-1.3,0.6-2.7,1.1-4.2,1.6c-1.7,0.5-3.6,0.9-5.5,1.2c-1.9,0.3-3.9,0.5-5.9,0.5
	c-0.5,0-0.9,0-1.4,0h-0.3c-1.6,0-3.1-0.1-4.6-0.3c-4.4-0.5-8.6-1.9-12.3-4c-2.9-1.6-8.4-5.5-12.3-10.4l-0.3,6.8
	c-0.1,2-1.6,3.6-3.6,3.6h-0.1c-1.5-0.1-9.4-0.3-15.3-0.3c-0.8,0-1.6,0-2.3,0c-1.6,0-7-5.7-7.9-6.9c-0.4-0.4-0.7-0.8-0.9-1.3
	c-0.9-1.9-2.1-4.3-3.5-7.2c0.3,5,0.7,11.9,0.7,11.9c0.1,2.1-1.4,3.9-3.5,4.1c-5.3,0.4-10.7,0.8-16,1.3c-6.2,0.6-11.8,1.4-17.4,2.2
	l-0.2,0l-0.2,0c-1.7,0-7.7-5.9-8.4-7.3c-0.3-0.3-0.5-0.7-0.6-1.1l-0.3-0.7c-4,0.7-7.5,1.3-10.9,2c-0.3,2.7-0.6,5.4-1,8.1
	c-0.2,1.7-1.4,3.1-3,3.5c-6.6,1.5-13.3,3.2-19.7,5.1l-0.3,0.1l-0.3,0c-0.1,0-0.3,0-0.4,0c-1,0-1.9-0.4-2.6-1.1
	c-0.1-0.1-0.3-0.3-0.4-0.5c-1.1,0.9-2.2,1.7-3.5,2.4c-2.8,1.7-5.8,3.1-8.9,4.1c-8.9,3-17.8,6.4-26.5,10.1l-0.4,0.2l-0.6,0.1
	L128.3,176.5z"/>
<path class="st4" d="M341.2,80.5c-2.3,13.2-4.6,26.5-6.9,39.8c0,0.2,0.1,0.4,0.3,0.5c5.6,1.5,11.2,3,16.8,4.6
	c0.2,0.1,0.4-0.1,0.5-0.3c3.5-13.3,7.1-26.5,10.8-39.6c0.1-0.2-0.1-0.5-0.3-0.6c-6.9-1.7-13.8-3.3-20.8-4.9
	C341.5,80.1,341.3,80.2,341.2,80.5L341.2,80.5z M347.5,130.2c-0.8-1-1.8-1.8-2.9-2.4c-1.1-0.6-2.2-0.9-3.5-1c-1.2-0.1-2.4,0-3.6,0.4
	c-1.2,0.4-2.3,1-3.3,1.9c-1,0.9-1.9,1.9-2.4,3.1c-0.6,1.1-0.9,2.3-1,3.5c-0.1,1.2,0,2.4,0.3,3.6c0.3,1.2,0.9,2.3,1.7,3.2
	c0.8,1,1.7,1.7,2.8,2.3c1.1,0.5,2.2,0.8,3.3,1c1.2,0.1,2.3,0,3.5-0.4c1.2-0.4,2.3-1,3.3-1.8c1-0.8,1.8-1.8,2.4-2.9
	c0.6-1.1,1-2.2,1.2-3.4c0.2-1.2,0.1-2.4-0.2-3.6C348.9,132.4,348.3,131.2,347.5,130.2L347.5,130.2z M190.7,115.2
	c0.7-5.5,1.5-11,2.4-16.4c0.1-0.4,0.6-0.5,0.8-0.1c2.2,5,4.3,10,6.4,15c0.1,0.3-0.1,0.6-0.3,0.6c-2.9,0.4-5.8,0.9-8.8,1.4
	C190.9,115.7,190.7,115.5,190.7,115.2L190.7,115.2z M147.3,135.6c-0.8,1.2-2,2-3.7,2.6c-1.9,0.6-3.9,1.3-5.8,2
	c-0.2,0.1-0.5,0-0.5-0.3c-0.8-3-1.5-6-2.3-8.9c-0.1-0.2,0.1-0.5,0.3-0.6c1.7-0.6,3.4-1.1,5-1.7c0.7-0.2,1.4-0.4,2.1-0.5
	c0.8-0.1,1.5-0.1,2.3,0.1c0.7,0.2,1.4,0.5,2,1c0.6,0.5,1,1.2,1.2,2.1C148.3,133.1,148.1,134.5,147.3,135.6L147.3,135.6z
	 M128.6,106.3c-0.1-0.2,0.1-0.5,0.3-0.6c1.7-0.6,3.4-1.1,5.1-1.6c1.8-0.5,3.3-0.6,4.5-0.2c1.2,0.4,2,1.3,2.3,2.6
	c0.4,1.6,0.2,3-0.6,4.1c-0.8,1.1-2,1.9-3.5,2.3c-1.8,0.6-3.7,1.2-5.5,1.8c-0.2,0.1-0.5-0.1-0.5-0.3C130,111.7,129.3,109,128.6,106.3
	L128.6,106.3z M306.8,100.4c0-0.3,0.2-0.5,0.5-0.4c3.2,0.5,21.9,4,24.9,4.6c0.2,0,0.4,0.3,0.4,0.5c-0.5,3.1-3.3,22.8-4.8,33.3
	c0,0.1-0.1,0.2-0.2,0.3c-1.2,0.6-2.6,1.2-4.2,1.6c-1.6,0.5-3.3,0.8-5.1,1.1c-1.8,0.3-3.6,0.4-5.6,0.5c-1.9,0.1-3.8,0-5.7-0.2
	c-4-0.5-7.7-1.7-11-3.6c-3.4-1.9-6.3-4.4-8.7-7.6c-2.5-3.2-4.4-7-5.8-11.4c-1-3.3-1.6-6.8-1.8-10.5c-0.4,9.6-0.8,19.1-1.2,28.7
	c0,0.2-0.2,0.4-0.4,0.4c-2.1-0.1-12.1-0.3-17.7-0.2c-0.2,0-0.3-0.1-0.4-0.2c-5.1-10.8-16.1-32-16.1-32c0,0-0.2,0-0.3,0
	c0.6,10.1,1.7,29.3,1.9,32.4c0,0.2-0.2,0.4-0.4,0.4c-5.3,0.4-10.7,0.8-16,1.3c-5.8,0.6-11.7,1.3-17.5,2.2c-0.2,0-0.4-0.1-0.4-0.3
	c-1.3-3.1-2.6-6.2-3.9-9.3c-0.1-0.2-0.3-0.3-0.5-0.3c-6,0.9-12,2-18,3.3c-0.2,0-0.3,0.2-0.4,0.4c-0.4,3.5-0.8,6.9-1.2,10.4
	c0,0.2-0.2,0.4-0.3,0.4c-6.6,1.5-13.2,3.2-19.9,5.1c-0.3,0.1-0.6-0.2-0.5-0.5c0.3-2.3,0.6-4.5,0.8-6.8c-0.6,1-1.2,1.9-1.9,2.8
	c-1.8,2.3-4,4.2-6.6,5.7c-2.6,1.6-5.4,2.8-8.3,3.8c-8.9,3-17.8,6.4-26.7,10.1c-0.2,0.1-0.5,0-0.5-0.3c-7-23.7-14.2-47.6-21.8-71.7
	c-0.1-0.2,0.1-0.5,0.3-0.6c9.5-3.5,18.9-6.6,28.3-9.3c2.8-0.8,5.8-1.4,9.1-1.8c3.2-0.4,6.3-0.2,9.3,0.5c2.9,0.7,5.5,2.2,7.7,4.3
	c2.2,2.2,3.7,5.4,4.6,9.5c0.8,3.9,0.5,7.3-0.7,10.3c-1.2,3-3.1,5.4-5.7,7.4c0,0.1,0,0.2,0.1,0.3c1.6,0,3.2,0.3,4.8,0.8
	c1.6,0.5,3.1,1.4,4.5,2.5c1.4,1.1,2.6,2.5,3.6,4.2c0.9,1.5,1.5,3.3,1.9,5.2c2.5-18,5.4-35.9,8.9-53.7c0-0.2,0.2-0.3,0.4-0.4
	c7.8-1.2,15.5-2.2,23.2-3c0.2,0,0.3,0.1,0.4,0.2c8.7,17.8,16.6,35.6,23.8,53.2c0.2,0.5,0.8,0.3,0.8-0.2c-1.3-18.1-2.6-36.2-3.9-54.3
	c0-0.3,0.2-0.5,0.4-0.5c6.9,0.1,13.8,0.2,20.7,0.3c0.2,0,0.3,0.1,0.4,0.2c5.7,10.9,11.4,21.7,17,32.5c0.2,0.4,0.8,0.3,0.8-0.2
	c-0.2-10.7-0.5-21.5-0.7-32.2c0-0.2,0.2-0.4,0.4-0.4c6.3-0.1,12.6-0.2,19-0.2c0.3,0,0.5,0.2,0.5,0.5c-0.4,10.1-0.8,20.2-1.3,30.3
	c0.5-3.6,1.3-6.9,2.6-9.9c1.8-4.1,4.2-7.6,7.3-10.3c3-2.7,6.6-4.5,10.6-5.5c4-1,8.2-1.1,12.5-0.3c4.5,0.9,8.7,2.6,12.4,5.1
	c3.6,2.4,6.4,5.2,8.5,8.4c0.1,0.2,0.1,0.4-0.1,0.5c-4.1,3.8-8.1,7.7-12.1,11.7c-0.2,0.2-0.5,0.1-0.7-0.1c-0.9-1.5-2-2.9-3.3-4
	c-1.4-1.2-3.3-2-5.6-2.4c-1.5-0.3-3-0.2-4.6,0.3c-1.5,0.5-2.9,1.3-4.1,2.4c-1.2,1.1-2.2,2.6-3.1,4.3c-0.8,1.7-1.3,3.7-1.5,6
	c-0.3,4.5,0.4,8.3,2.1,11.4c1.7,3.1,4.7,4.9,8.9,5.5c0.7,0.1,1.5,0.1,2.3,0.1c0.8,0,1.4-0.2,1.9-0.4c0.1-1.3,0.4-3.5,0.5-4.4
	c0-0.2-0.1-0.5-0.4-0.5c-2.3-0.3-4.5-0.6-6.8-0.9c-0.2,0-0.4-0.2-0.4-0.4C307.1,111.3,306.9,105.8,306.8,100.4z"/>
<path class="st5" d="M168.4,246.3c-1.7-0.1-6.9-5.6-7.2-7l-0.1-0.3l0,0c0-0.1-0.1-0.2-0.1-0.3c-4.6-20.8-9.4-41.8-14.3-62.5
	c-0.3-1.2-0.1-2.5,0.5-3.6c0.6-1.1,1.6-1.9,2.7-2.3c8.3-2.7,16.8-5.2,25.2-7.3c2.7-0.7,5.5-1.2,8.5-1.4l0.5,0
	c0.9-0.1,1.9-0.1,2.8-0.1c2,0.1,4,0.4,5.9,0.9c3.1,0.9,5.8,2.5,8,5c0.6,0.7,1.2,1.5,1.7,2.4c2.1,3,4.6,10.4,5,14.1
	c0,0.1,0,0.1,0,0.2c2.1-8.8,4.2-17.4,6.4-25.7c0.5-1.8,2-3.2,3.8-3.4c6.7-0.8,13.5-1.5,20.3-1.9c0,0,0,0,0,0c0,0,0.2,0,0.2,0
	c0,0,0.1,0,0.2,0c1.6,0,3,1,3.6,2.5c0.8,2,1.6,4,2.4,6c0.1,0.1,0.1,0.2,0.1,0.3c2.6,6.5,5.3,13.4,8,20.5c0-8.5,0-17,0-25.4
	c0-1.2,0.5-2.3,1.3-3.2c0.8-0.8,1.9-1.3,3.1-1.3c6,0.2,12.1,0.5,18,0.8c1.5,0.1,2.9,1,3.5,2.5l6.7,15.2l0.6-13.1
	c0.1-1.1,0.5-2.1,1.3-2.9c0.8-0.8,1.9-1.3,3-1.2c5.5,0.1,11,0.2,16.4,0.3c1.2,0.1,2.3,0.6,3.1,1.5c0.3,0.3,0.5,0.7,0.7,1.2
	c0.8,1.6,1.9,4.7,2.4,6.4c2.9-2,6.1-3.4,9.5-4.2c2.2-0.5,4.4-0.7,6.7-0.6c0.3,0,0.6,0,0.9,0c1.6,0.1,3.2,0.3,4.8,0.7
	c4.3,1,8.3,2.8,11.8,5.4c2.7,2,5,4.3,6.7,6.9c0.3-1.1,0.6-2.2,0.8-3.3c0.5-1.9,2.1-3.1,4-3.1c0.1,0,0.3,0,0.3,0l0.1,0
	c0.1,0,0.1,0,0.2,0l0.3,0.1c5.8,1.5,11.8,3.1,17.7,4.8c1.1,0.3,2.1,1.1,2.7,2.2c0.1,0.3,0.3,0.6,0.3,0.9c0.5,1.1,1.1,2.6,1.5,3.9
	c0.3,0.7,0.5,1.5,0.6,1.6c0.5,0.8,0.5,1.8,0.2,2.7c-3.9,11.1-7.9,22.4-11.8,33.8c-0.4,1.3-1.7,2.2-3.1,2.1l-0.5,0l-0.4-0.1
	c-0.1,0-0.3-0.1-0.4-0.1c0.8,1.2,1.3,2.5,1.6,3.9c0.3,1.4,0.2,2.8,0,4.2c-0.3,1.4-0.8,2.7-1.6,3.9c-0.8,1.2-1.8,2.3-3,3.1
	c-1.2,0.9-2.6,1.6-3.9,1.9c-1.1,0.3-2.1,0.4-3.2,0.4l0,0l-0.3,0c-0.2,0-0.5,0-0.7-0.1c-1.3-0.2-2.6-0.6-3.8-1.2
	c-1.3-0.7-2.3-1.7-3.2-2.9c-0.5-0.7-0.9-1.5-1.2-2.3c-1.1,0.5-2.4,0.9-3.7,1.3c-1.5,0.4-3.1,0.7-4.8,0.9c-1.6,0.2-3.4,0.3-5.1,0.3
	c-0.4,0-0.8,0-1.2,0l-0.2,0c-1.3-0.1-2.7-0.2-3.9-0.4c-3.8-0.6-7.3-1.8-10.3-3.8c-2.4-1.5-6.9-5-9.9-9.3l-0.7,5.9
	c-0.2,1.7-1.6,3-3.3,3l-0.1,0c-1.3-0.1-8.1-0.5-13.1-0.6c-0.7,0-1.4,0-2-0.1c-1.4,0-5.6-5.1-6.4-6.2c-0.3-0.4-0.5-0.7-0.7-1.2
	c-0.7-1.7-1.5-3.8-2.6-6.4c-0.1,4.3-0.1,10.3-0.1,10.3c0,1.8-1.5,3.4-3.3,3.4c-4.6,0.2-9.2,0.4-13.9,0.7c-5.3,0.4-10.3,0.9-15.1,1.5
	l-0.1,0l-0.2,0c-1.5,0-6.2-5.3-6.8-6.5c-0.2-0.3-0.4-0.6-0.5-0.9l-0.2-0.6c-3.4,0.5-6.6,0.9-9.5,1.4c-0.4,2.3-0.9,4.7-1.3,7
	c-0.3,1.5-1.4,2.7-2.8,2.9c-5.8,1.1-11.6,2.4-17.3,3.9l-0.2,0.1l-0.3,0c-0.1,0-0.2,0-0.3,0c-0.8,0-1.6-0.4-2.1-1.1
	c-0.1-0.1-0.2-0.3-0.3-0.4c-1,0.7-2,1.4-3.1,2c-2.5,1.4-5.2,2.5-7.9,3.3c-7.8,2.3-15.7,5-23.4,8l-0.3,0.1l-0.5,0.1H168.4z"/>
<path class="st4" d="M357.8,168.9c-2.8,11.4-5.6,22.8-8.4,34.3c0,0.2,0.1,0.4,0.3,0.4c4.7,1.4,9.5,2.9,14.2,4.4
	c0.2,0.1,0.4,0,0.4-0.2c3.9-11.4,7.8-22.7,11.8-33.9c0.1-0.2-0.1-0.4-0.3-0.5c-5.8-1.7-11.7-3.3-17.6-4.8
	C358,168.6,357.8,168.7,357.8,168.9L357.8,168.9z M360.1,212c-0.6-0.9-1.4-1.6-2.3-2.2c-0.9-0.5-1.9-0.8-2.9-1c-1-0.1-2.1,0-3.1,0.3
	c-1.1,0.3-2,0.8-3,1.5c-1,0.8-1.7,1.6-2.3,2.6c-0.6,1-0.9,2-1.1,3c-0.2,1-0.1,2.1,0.1,3.1c0.2,1,0.6,2,1.2,2.8
	c0.6,0.9,1.4,1.5,2.3,2c0.9,0.5,1.8,0.8,2.8,0.9c1,0.1,2,0,3-0.2c1-0.3,2-0.8,3-1.5c0.9-0.7,1.7-1.5,2.3-2.4c0.6-0.9,1-1.9,1.2-2.9
	c0.2-1,0.2-2.1,0-3.1C361.1,213.9,360.7,213,360.1,212L360.1,212z M226,194.9c1-4.7,2-9.4,3.1-14.1c0.1-0.4,0.6-0.4,0.7-0.1
	c1.6,4.4,3.1,8.7,4.6,13.1c0.1,0.2-0.1,0.5-0.3,0.5c-2.5,0.3-5.1,0.6-7.6,1C226.1,195.4,225.9,195.1,226,194.9L226,194.9z
	 M187.3,211.4c-0.8,1-1.9,1.7-3.3,2.1c-1.7,0.5-3.4,1-5.1,1.6c-0.2,0.1-0.4-0.1-0.4-0.3c-0.5-2.6-0.9-5.2-1.4-7.8
	c0-0.2,0.1-0.4,0.3-0.5c1.5-0.5,3-0.9,4.4-1.3c0.6-0.2,1.2-0.3,1.9-0.4c0.7-0.1,1.3,0,2,0.2c0.6,0.2,1.2,0.5,1.7,0.9
	c0.5,0.4,0.8,1.1,0.9,1.9C188.4,209.3,188.1,210.5,187.3,211.4L187.3,211.4z M173,185.6c0-0.2,0.1-0.4,0.3-0.5
	c1.5-0.4,3-0.8,4.5-1.3c1.5-0.4,2.8-0.4,3.9-0.1c1,0.4,1.7,1.1,1.8,2.3c0.2,1.4,0,2.6-0.8,3.5c-0.8,0.9-1.8,1.6-3.2,1.9
	c-1.6,0.4-3.2,0.9-4.9,1.4c-0.2,0.1-0.4-0.1-0.4-0.3C173.9,190.3,173.4,187.9,173,185.6L173,185.6z M326.9,185.2
	c0-0.2,0.2-0.4,0.4-0.3c2.7,0.5,18.6,4,21.2,4.6c0.2,0,0.3,0.2,0.3,0.4c-0.6,2.6-4.3,19.6-6.2,28.7c0,0.1-0.1,0.2-0.2,0.3
	c-1.1,0.5-2.3,0.9-3.7,1.3c-1.4,0.4-2.9,0.6-4.5,0.8c-1.6,0.2-3.2,0.3-4.8,0.3c-1.7,0-3.3-0.1-4.9-0.4c-3.4-0.5-6.5-1.6-9.3-3.4
	c-2.8-1.7-5.1-4-7.1-6.8c-1.9-2.8-3.3-6.2-4.3-10c-0.7-2.8-1-5.9-0.9-9.2c-0.9,8.3-1.9,16.5-2.8,24.8c0,0.2-0.2,0.4-0.4,0.3
	c-1.8-0.1-10.4-0.6-15.2-0.7c-0.1,0-0.3-0.1-0.3-0.2c-3.7-9.5-11.9-28.1-11.9-28.1c0,0-0.2,0-0.3,0c-0.1,8.7-0.3,25.4-0.4,28
	c0,0.2-0.2,0.4-0.4,0.4c-4.6,0.2-9.3,0.4-13.9,0.7c-5.1,0.4-10.1,0.8-15.3,1.5c-0.2,0-0.3-0.1-0.4-0.2c-0.9-2.7-1.8-5.4-2.8-8.1
	c-0.1-0.2-0.2-0.3-0.4-0.2c-5.2,0.6-10.4,1.4-15.7,2.3c-0.2,0-0.3,0.2-0.3,0.3c-0.6,3-1.1,6-1.7,9c0,0.2-0.2,0.3-0.3,0.3
	c-5.8,1.1-11.6,2.4-17.4,3.9c-0.3,0.1-0.5-0.2-0.4-0.4c0.4-1.9,0.8-3.9,1.1-5.8c-0.5,0.8-1.1,1.6-1.8,2.4c-1.7,1.9-3.7,3.5-6.1,4.8
	c-2.3,1.3-4.8,2.3-7.3,3.1c-7.8,2.4-15.7,5-23.6,8.1c-0.2,0.1-0.4,0-0.4-0.2c-4.5-20.6-9.3-41.5-14.3-62.6c0-0.2,0.1-0.5,0.3-0.5
	c8.4-2.8,16.7-5.2,25-7.3c2.5-0.6,5.1-1.1,8-1.3c2.8-0.2,5.5,0,8,0.7c2.5,0.7,4.6,2,6.4,4c1.8,1.9,2.9,4.7,3.3,8.4
	c0.4,3.4,0,6.3-1.2,8.8c-1.2,2.5-3,4.6-5.3,6.2c0,0.1,0,0.2,0,0.3c1.4,0,2.7,0.3,4.1,0.8c1.4,0.5,2.6,1.3,3.7,2.3
	c1.1,1,2.1,2.2,2.8,3.7c0.7,1.3,1.1,2.9,1.3,4.6c3.3-15.5,6.9-30.9,11-46.2c0-0.2,0.2-0.3,0.3-0.3c6.8-0.9,13.5-1.5,20.1-2
	c0.2,0,0.3,0.1,0.4,0.2c6.4,15.6,12.1,31.2,17.2,46.7c0.1,0.4,0.7,0.3,0.7-0.2c0-15.7,0-31.3,0-47c0-0.2,0.2-0.4,0.4-0.4
	c5.9,0.2,11.9,0.5,17.8,0.8c0.1,0,0.3,0.1,0.3,0.2c4.2,9.5,8.4,19.1,12.7,28.5c0.2,0.4,0.7,0.2,0.7-0.1c0.5-9.3,0.9-18.6,1.4-27.8
	c0-0.2,0.2-0.4,0.4-0.4c5.5,0.1,10.9,0.2,16.4,0.3c0.2,0,0.4,0.2,0.4,0.4c-1,8.7-2,17.4-3,26.2c0.6-3.1,1.6-6,2.9-8.5
	c1.8-3.5,4.1-6.4,6.9-8.7c2.8-2.2,5.9-3.7,9.4-4.5c3.5-0.8,7.1-0.7,10.8,0.1c3.8,0.9,7.3,2.5,10.4,4.7c3,2.2,5.2,4.7,6.8,7.5
	c0.1,0.2,0.1,0.4-0.1,0.5c-3.8,3.2-7.5,6.5-11.1,9.8c-0.2,0.2-0.5,0.1-0.6-0.1c-0.7-1.4-1.5-2.5-2.6-3.5c-1.2-1.1-2.7-1.9-4.7-2.3
	c-1.3-0.3-2.6-0.2-3.9,0.1c-1.3,0.4-2.6,1-3.7,2c-1.1,1-2.1,2.2-2.9,3.7c-0.8,1.5-1.4,3.2-1.7,5.1c-0.6,3.9-0.2,7.2,1.1,9.9
	c1.3,2.7,3.7,4.3,7.3,5c0.6,0.1,1.3,0.2,2,0.2c0.7,0,1.2-0.1,1.7-0.3c0.2-1.1,0.5-3,0.7-3.8c0-0.2-0.1-0.4-0.3-0.4
	c-1.9-0.3-3.8-0.6-5.8-1c-0.2,0-0.3-0.2-0.3-0.4C326.4,194.6,326.7,189.9,326.9,185.2z"/>
</svg>
